{"title":"Grace and Frankie S02E11 720p WEBRip x264","uid":14550494,"size":541909351,"categoryP":"video","categoryS":"hd___tv_shows","magnet":"?xt=urn:btih:efaa5f0ec7051bc615fd424a04a9765d7c1a6aff&amp;dn=Grace+and+Frankie+S02E11+720p+WEBRip+x264&amp;tr=udp%3A%2F%2Ftracker.leechers-paradise.org%3A6969&amp;tr=udp%3A%2F%2Fzer0day.ch%3A1337&amp;tr=udp%3A%2F%2Fopen.demonii.com%3A1337&amp;tr=udp%3A%2F%2Ftracker.coppersurfer.tk%3A6969&amp;tr=udp%3A%2F%2Fexodus.desync.com%3A6969","seeders":18,"leechers":1,"uploader":"TheRival","files":1,"time":1462650679,"description":"Screens:  \nhttp://postimg.org/image/7miwm4fk1/full/\r\n\r\nFormat ..........: mp4\r\nResolution ......: 1280*720\r\nFrame rate ......: 25 fps\r\nAudio ...........: AAC 128 kbps\r\n\r\nFull details:\r\n\r\nVideo\r\nID                                       : 1\r\nFormat                                   : AVC\r\nFormat/Info                              : Advanced Video Codec\r\nFormat profile                           :   \r\nFormat settings, CABAC                   : Yes\r\nFormat settings, ReFrames                : 1 frame\r\nFormat settings, GOP                     : M=3, N=24\r\nMuxing mode                              : Container   \r\nCodec ID                                 : avc1\r\nCodec ID/Info                            : Advanced Video Coding\r\nDuration                                 : 27mn 47s\r\nBit rate mode                            : Variable\r\nBit rate                                 : 2 465 Kbps\r\nMaximum bit rate                         : 3 750 Kbps\r\nWidth                                    : 1 280 pixels\r\nHeight                                   : 720 pixels\r\nDisplay aspect ratio                     : 16:9\r\nFrame rate mode                          : Constant\r\nFrame rate                               : 25.000 fps\r\nColor space                              : YUV\r\nChroma subsampling                       : 4:2:0\r\nBit depth                                : 8 bits\r\nScan type                                : Progressive\r\nBits/(Pixel*Frame)                       : 0.107\r\nStream size                              : 490 MiB (95%)\r\nLanguage                                 : English\r\n\r\nAudio\r\nID                                       : 2\r\nFormat                                   : AAC\r\nFormat/Info                              : Advanced Audio Codec\r\nFormat profile                           : LC\r\nCodec ID                                 : 40\r\nDuration                                 : 27mn 48s\r\nBit rate mode                            : Constant\r\nBit rate                                 : 128 Kbps\r\nChannel(s)                               : 2 channels\r\nChannel positions                        : Front: L R\r\nSampling rate                            : 48.0 KHz\r\nFrame rate                               : 46.875 fps (1024 spf)\r\nCompression mode                         : Lossy\r\nStream size                              : 25.5 MiB (5%)\r\nTitle                                    : Stereo\r\nLanguage                                 : English\r\nDefault                                  : Yes\r\nAlternate group                          : 1","torrent":{"xt":"urn:btih:efaa5f0ec7051bc615fd424a04a9765d7c1a6aff","amp;dn":"Grace+and+Frankie+S02E11+720p+WEBRip+x264","amp;tr":["udp%3A%2F%2Ftracker.leechers-paradise.org%3A6969","udp%3A%2F%2Fzer0day.ch%3A1337","udp%3A%2F%2Fopen.demonii.com%3A1337","udp%3A%2F%2Ftracker.coppersurfer.tk%3A6969","udp%3A%2F%2Fexodus.desync.com%3A6969"],"infoHash":"efaa5f0ec7051bc615fd424a04a9765d7c1a6aff","infoHashBuffer":{"type":"Buffer","data":[239,170,95,14,199,5,27,198,21,253,66,74,4,169,118,93,124,26,106,255]},"announce":[],"urlList":[]}}